<?xml version="1.0" encoding="UTF-8" standalone="no"?>
<!-- Created with Inkscape (http://www.inkscape.org/) -->

<svg
   width="210mm"
   height="297mm"
   viewBox="0 0 210 297"
   version="1.1"
   id="svg5"
   inkscape:version="1.1 (c68e22c387, 2021-05-23)"
   sodipodi:docname="concept.svg"
   xmlns:inkscape="http://www.inkscape.org/namespaces/inkscape"
   xmlns:sodipodi="http://sodipodi.sourceforge.net/DTD/sodipodi-0.dtd"
   xmlns="http://www.w3.org/2000/svg"
   xmlns:svg="http://www.w3.org/2000/svg">
  <sodipodi:namedview
     id="namedview7"
     pagecolor="#ffffff"
     bordercolor="#666666"
     borderopacity="1.0"
     inkscape:pageshadow="2"
     inkscape:pageopacity="0.0"
     inkscape:pagecheckerboard="0"
     inkscape:document-units="mm"
     showgrid="false"
     inkscape:zoom="0.72337262"
     inkscape:cx="397.44385"
     inkscape:cy="561.95105"
     inkscape:window-width="1920"
     inkscape:window-height="1001"
     inkscape:window-x="-9"
     inkscape:window-y="-9"
     inkscape:window-maximized="1"
     inkscape:current-layer="layer2" />
  <defs
     id="defs2">
    <rect
       x="646.96947"
       y="240.53993"
       width="178.33133"
       height="73.26791"
       id="rect12051" />
    <rect
       x="189.39064"
       y="252.98165"
       width="223.95097"
       height="129.94686"
       id="rect9715" />
    <rect
       x="-244.68717"
       y="243.30476"
       width="168.65444"
       height="71.885497"
       id="rect7927" />
  </defs>
  <g
     inkscape:label="Layer 1"
     inkscape:groupmode="layer"
     id="layer1">
    <rect
       style="fill:#ffd5d5;stroke-width:0.264583"
       id="rect943"
       width="391.30652"
       height="277.34167"
       x="-124.28743"
       y="11.395164" />
    <rect
       style="fill:#001616;fill-opacity:1;stroke-width:0.216285"
       id="rect945"
       width="392.54297"
       height="37.958733"
       x="-125.1585"
       y="54.94215" />
  </g>
  <g
     inkscape:groupmode="layer"
     id="layer2"
     inkscape:label="Layer 2">
    <path
       style="fill:#00b2ad;fill-opacity:1;stroke-width:0.264583"
       id="path5381"
       d="m -65.146657,29.525936 c 0.31121,-0.333775 0.587536,-0.703876 0.933632,-1.001326 2.56327,-2.202998 6.012704,-4.071001 9.503741,-3.603956 0.687967,0.09204 1.311719,0.454388 1.967579,0.681582 0.535691,0.457288 1.214385,0.787164 1.607071,1.371865 0.880978,1.311749 0.773901,3.049347 0.40775,4.47875 -0.509244,1.988035 -1.640872,3.88365 -2.874968,5.488504 -0.70711,0.919543 -1.546926,1.728951 -2.320388,2.59343 -2.235047,2.323843 -4.979588,4.066309 -7.344373,6.239039 -0.155961,0.143295 -2.014127,1.846167 -1.965658,2.581526 0.02503,0.379584 0.446722,0.615857 0.670084,0.923787 0.758803,0.05992 1.516009,0.213876 2.276411,0.179764 1.566828,-0.07029 6.23021,-0.962563 7.435464,-1.212586 2.580132,-0.535236 6.213189,-1.393031 8.753564,-2.198052 1.139622,-0.361138 2.244307,-0.82445 3.366461,-1.236673 1.432486,-0.859711 2.778524,-1.261909 3.399546,-2.951621 0.781659,-2.126789 -0.683744,-4.325421 -1.122428,-6.31395 -0.177038,-0.802508 -0.20641,-1.630598 -0.309616,-2.445896 0.100865,-0.794533 0.05232,-1.622795 0.302596,-2.383594 0.653444,-1.986396 2.836368,-3.954462 5.077696,-3.68264 1.462561,0.177377 3.597412,2.140998 4.530968,2.867599 0.660813,0.969902 1.452896,1.862341 1.982436,2.909705 0.560189,1.107985 0.992936,2.292469 1.260694,3.504798 0.669428,3.030971 0.541719,7.481771 -1.335849,10.135079 -0.511546,0.722897 -1.338824,1.15956 -2.008235,1.739339 -0.898062,0.104801 -1.793674,0.395483 -2.694186,0.314407 -0.894604,-0.08055 -1.759434,-0.416026 -2.576576,-0.788956 -2.93673,-1.340276 -5.723493,-3.614161 -6.415373,-6.947506 -0.206772,-0.996183 -0.0021,-2.034828 -0.003,-3.052244 0.528122,-1.104902 0.910685,-2.292027 1.584367,-3.31471 3.204713,-4.864912 8.757156,-8.36965 14.352344,-9.742093 1.165659,-0.285924 2.375478,-0.34518 3.563216,-0.517771 2.152677,0.280367 3.213894,0.155754 5.083346,1.505409 2.46171,1.777236 3.960306,4.96528 4.742856,7.794665 0.277925,1.004867 0.403747,2.045724 0.60562,3.068585 0.222467,2.796355 0.210895,5.672741 -0.628393,8.382759 -0.403009,1.301293 -0.984897,2.810148 -2.323189,3.482139 -0.569288,0.285853 -1.257934,0.202002 -1.886901,0.303004 -0.561342,-0.160314 -1.165714,-0.212318 -1.684024,-0.480941 -3.784083,-1.961174 -5.735176,-6.375721 -6.095284,-10.448108 -0.102096,-1.154578 0.0538,-2.317543 0.0807,-3.476315 0.287328,-1.072883 0.42393,-2.197989 0.861987,-3.218648 1.610354,-3.752078 5.633728,-6.783641 9.660395,-7.408724 0.894458,-0.138852 1.810131,-0.02766 2.715196,-0.04148 0.777297,0.221204 1.591292,0.340138 2.3318904,0.663611 1.9843044,0.86669 3.7008649,2.072169 4.9463015,3.88977 1.6479626,2.405051 2.641611,5.720947 3.2312516,8.495993 0.3842377,1.808353 0.54190959,3.657518 0.81286436,5.486275 0.18855954,3.589536 0.47013532,6.406666 0.18954223,9.95789 -0.0761919,0.964295 -0.13014677,1.961867 -0.4878406,2.860601 -0.0894481,0.224748 -0.63072309,0.377886 -0.71013009,0.1494 -0.272213,-0.78327 -0.029238,-1.659544 -0.1017756,-2.485589 -0.1628898,-1.854951 -0.4027767,-3.702335 -0.6041651,-5.553506 0.052339,-2.501797 -0.060091,-5.012484 0.1570185,-7.50539 0.4284689,-4.91979 1.49944392,-10.63122 3.24219923,-15.295845 0.90621687,-2.425562 2.40053527,-6.137526 5.25637717,-7.248233 0.5931913,-0.230706 1.2431789,0.273701 1.8647682,0.410551 0.5527524,0.67838 1.295033,1.239023 1.658257,2.03514 2.1291062,4.666595 -0.4550148,10.338474 -2.8836022,14.324649 -0.5477597,0.899068 -1.2164078,1.718665 -1.8246119,2.577997 -0.3378832,0.336317 -1.4549355,1.849152 -2.3759493,1.845075 -0.1713959,-7.94e-4 0.29884,-0.191686 0.386802,-0.338789 0.1563201,-0.261424 0.2051992,-0.57405 0.3261853,-0.853588 0.7007878,-1.619165 0.5986835,-1.322776 1.5639473,-2.879966 0.8252618,-0.942022 1.8856957,-2.705362 3.4077449,-2.498717 0.077506,0.01053 0.1186135,0.10236 0.1824442,0.147566 0.1637557,0.115975 0.3331816,0.223727 0.4997725,0.33559 1.1323024,0.881316 2.2330434,1.949958 3.5756684,2.516288 1.694994,0.714965 3.510575,1.029083 5.351804,0.884809 1.18969,-0.09322 2.34704,-0.433147 3.520559,-0.649722 2.791324,-1.174747 5.106295,-2.69618 6.67402,-5.356209 0.548693,-0.930989 1.023731,-2.216364 0.865026,-3.343781 -0.05379,-0.382152 -0.305747,-0.7087 -0.458621,-1.06305 -0.550505,-0.105816 -1.10386,-0.437149 -1.651516,-0.317449 -0.966095,0.211157 -2.386295,2.026766 -2.822529,2.659766 -0.988493,1.434359 -1.796548,3.153942 -2.326003,4.805487 -0.282491,0.881181 -0.432827,1.799388 -0.64924,2.699083 -0.148663,1.838206 -0.532492,4.709673 1.326736,5.987698 0.509255,0.350057 1.157579,0.566491 1.774782,0.535802 2.398569,-0.119271 3.910239,-1.371843 5.892852,-2.538878 10.533594,-7.709895 -4.024863,2.994531 6.03145,-4.553791 0.721651,-0.541676 2.806432,-2.292514 4.084277,-2.38682 0.176393,-0.01302 0.01603,0.357617 -0.02307,0.530114 -0.112889,0.498102 -0.286903,0.980348 -0.430355,1.470523 -0.465865,0.963379 -0.86016,1.964774 -1.397595,2.890136 -3.210854,5.528495 -7.881726,10.155423 -13.15288,13.730906 -1.09827,0.744969 -2.282353,1.354834 -3.423529,2.032249 -5.980819,2.523022 -0.304858,0.383794 -3.906402,1.294064 -0.342155,0.08648 0.732935,0.02291 1.050636,-0.130768 0.744247,-0.359986 1.35946,-0.942657 2.063748,-1.375637 3.924075,-2.412431 4.775905,-2.747166 9.176175,-5.047692 2.058456,-0.986065 4.104146,-1.999234 6.175367,-2.958192 2.129632,-0.986004 4.264851,-1.961669 6.426134,-2.876209 5.309494,-2.246701 10.735554,-4.179276 16.187396,-6.043602 0.134853,-0.07029 -0.859142,-1.977377 -0.993994,-1.90709 v 0 c -1.549228,0.344924 -3.119491,0.606174 -4.64769,1.03477 -8.70209,2.44058 -16.929578,6.382586 -24.849005,10.66906 -2.978716,1.832057 -6.225615,3.601559 -8.855508,5.971461 -0.76204,0.686705 -1.694079,1.359469 -2.000552,2.338419 -1.112371,3.553182 5.211596,0.955979 5.579073,0.749546 1.247953,-0.68099 2.550523,-1.270254 3.743857,-2.042967 5.50958,-3.567583 10.621279,-8.768048 13.352391,-14.80299 0.496705,-1.097571 0.74981,-2.289826 1.124714,-3.434736 -0.0561,-0.845651 0.257345,-1.804075 -0.168288,-2.536949 -0.939914,-1.61839 -2.879627,-0.843339 -3.988221,-0.289687 -0.928161,0.463536 -1.767205,1.090152 -2.612977,1.690999 -0.644284,0.457706 -5.243774,4.04867 -5.850681,4.521044 -0.863431,0.600189 -1.712664,1.221333 -2.590291,1.800564 -0.551319,0.363871 -1.673472,1.288851 -2.541262,0.893556 -1.517878,-0.691425 -0.900862,-3.762764 -0.80426,-4.85865 0.205467,-0.834173 0.363126,-1.681596 0.6164,-2.502516 0.505055,-1.636998 1.105839,-3.04296 1.987649,-4.504351 0.318385,-0.527646 0.714241,-1.00448 1.07136,-1.506723 0.262051,-0.250161 0.591,-0.445251 0.786154,-0.750483 0.08121,-0.127016 -0.01159,-0.301294 -0.01736,-0.451942 0.08672,0.152318 0.247264,0.282156 0.260152,0.456954 0.06387,0.866158 -0.445998,1.882386 -0.888328,2.539444 -1.465273,2.176584 -3.596466,3.577373 -5.984838,4.573524 -0.753325,0.202184 -1.48704,0.50192 -2.259975,0.606552 -1.404943,0.190182 -3.467702,0.09932 -4.855638,-0.33899 C 12.35912,33.043024 10.97315,31.978994 9.8972009,31.217809 9.6420431,31.048169 9.417455,30.819534 9.1317272,30.708883 6.7700474,29.79429 4.9003119,31.776585 3.6087065,33.480375 3.2915307,34.032915 2.9240212,34.559464 2.6571786,35.137994 2.3536115,35.796143 1.6007594,37.706831 2.0385799,38.535842 3.2204681,40.773744 5.9012862,38.109432 6.7161414,37.35157 7.4219371,36.450688 8.2109232,35.609183 8.8335283,34.64892 11.714865,30.204965 14.291052,23.415318 11.338564,18.348302 10.711483,17.272114 9.5908383,16.573167 8.7169754,15.6856 7.3942108,15.638875 6.0074968,15.136433 4.7486821,15.545425 c -3.3720768,1.095596 -5.55192666,5.137352 -6.7509902,7.985853 -2.0757679,4.931205 -3.1324243,10.758444 -3.3618303,16.064313 -0.1133385,2.621381 0.2323685,5.24251 0.3485526,7.863766 0.481911,1.974035 0.5785125,4.08445 1.4457331,5.922105 0.7174034,1.520193 2.8090604,4.551953 4.47644095,1.942314 C 1.98013,53.643564 2.1141228,48.961322 2.1182254,47.463117 2.1234032,45.572253 1.9298206,43.686071 1.8356183,41.797549 1.500708,39.881624 1.30275,37.936646 0.8308873,36.049778 -0.26523865,31.666624 -2.1229269,27.135553 -5.8390932,24.313587 c -2.607024,-1.979711 -3.5154777,-1.787182 -6.6623188,-2.427102 -1.032238,0.05005 -2.079485,-0.03225 -3.096715,0.150133 -4.681427,0.839337 -8.888944,4.193769 -10.705716,8.594041 -0.474681,1.149691 -0.629364,2.406729 -0.944046,3.610094 -0.01958,1.284618 -0.185608,2.575361 -0.05878,3.853852 0.364009,3.669337 1.923198,7.445795 4.724779,9.93468 0.793216,0.704681 1.694953,1.335151 2.691541,1.699268 0.964937,0.352552 2.037218,0.267068 3.055826,0.400603 0.815072,-0.260162 1.719481,-0.327345 2.445217,-0.780484 1.4788,-0.92334 2.183473,-2.59557 2.680501,-4.153995 0.924586,-2.899029 1.023702,-5.966994 0.756564,-8.97165 -0.212697,-1.100709 -0.334668,-2.222897 -0.63809,-3.302127 -0.92615,-3.29419 -2.621245,-6.597549 -5.463445,-8.652826 -2.553673,-1.846635 -3.641601,-1.536797 -6.767647,-1.911007 -1.309568,0.164201 -2.644831,0.186666 -3.928703,0.492603 -5.972821,1.423277 -12.096977,5.478225 -15.162829,10.89578 -0.702498,1.241362 -1.028829,2.660719 -1.543246,3.991078 0.02888,1.214271 -0.172071,2.456072 0.08665,3.64281 1.096468,5.029385 6.370312,8.814848 11.426783,8.758565 1.143765,-0.01273 2.222164,-0.543541 3.333247,-0.81531 0.796912,-0.75088 1.767721,-1.352225 2.390738,-2.252637 0.671605,-0.970637 1.107159,-2.106654 1.41415,-3.246366 1.058973,-3.931462 0.513748,-8.373184 -1.416891,-11.949421 -0.632666,-1.171925 -1.571511,-2.150589 -2.357268,-3.225882 -2.426608,-1.77233 -3.249665,-2.940448 -6.484104,-3.002333 -1.702705,-0.03258 -3.675158,1.211847 -4.696778,2.474103 -0.577424,0.713433 -1.00979,1.560861 -1.279366,2.438206 -0.268898,0.875136 -0.205594,1.819455 -0.30839,2.729183 0.137866,0.89441 0.19349,1.805434 0.413602,2.683232 0.260942,1.040635 1.888635,4.089379 1.465048,5.1827 -0.480206,1.239462 -2.18744,1.674853 -3.150439,2.125015 -1.119129,0.346231 -2.2294,0.722505 -3.357388,1.038693 -5.624218,1.576536 -11.351079,2.783025 -16.979196,4.345083 -0.145923,0.04122 -0.480192,0.269219 -0.437763,0.123645 0.09152,-0.313992 0.386733,-0.531786 0.62272,-0.75823 0.480389,-0.460962 0.998358,-0.881951 1.519013,-1.296897 2.610654,-2.080602 2.224019,-1.538182 4.94371,-3.86864 0.916464,-0.785302 1.784459,-1.625465 2.676687,-2.438196 0.79579,-0.931839 1.670325,-1.801813 2.387364,-2.795522 1.293834,-1.793049 2.425528,-3.898696 2.847988,-6.100283 0.347891,-1.812978 0.268791,-3.771657 -0.815525,-5.358771 -0.479679,-0.702107 -1.272008,-1.128796 -1.908011,-1.693195 -0.990528,-0.285008 -1.947391,-0.739256 -2.971585,-0.855023 -3.744892,-0.423295 -7.513767,1.67856 -9.946537,4.381689 -0.31741,0.352684 -0.532577,0.785426 -0.798867,1.178139 -0.02439,0.04879 0.665549,0.393837 0.689949,0.345051 z" />
    <rect
       style="fill:#00b2ad;fill-opacity:1;stroke-width:0.264583"
       id="rect6101"
       width="65.632721"
       height="33.813194"
       x="-76.185341"
       y="57.207249" />
    <rect
       style="fill:#00b2ad;fill-opacity:1;stroke-width:0.274865"
       id="rect6103"
       width="70.510269"
       height="33.717468"
       x="39.324978"
       y="57.751911"
       ry="0" />
    <rect
       style="fill:#00b2ad;fill-opacity:1;stroke-width:0.264583"
       id="rect6105"
       width="64.959251"
       height="33.751976"
       x="161.50877"
       y="56.758305" />
    <text
       xml:space="preserve"
       transform="scale(0.26458333)"
       id="text7925"
       style="font-style:normal;font-weight:normal;font-size:40px;line-height:1.25;font-family:sans-serif;white-space:pre;shape-inside:url(#rect7927);fill:#000000;fill-opacity:1;stroke:none"><tspan
         x="-244.6875"
         y="279.7979"
         id="tspan15111">About</tspan></text>
    <text
       xml:space="preserve"
       transform="matrix(0.26458333,0,0,0.26458333,2.5603448,-4.7549261)"
       id="text9713"
       style="font-style:normal;font-weight:normal;font-size:40px;line-height:1.25;font-family:sans-serif;white-space:pre;shape-inside:url(#rect9715);fill:#000000;fill-opacity:1;stroke:none"><tspan
         x="189.39062"
         y="289.47563"
         id="tspan15113">Project </tspan><tspan
         x="189.39062"
         y="339.47563"
         id="tspan15115">Portfolio</tspan></text>
    <text
       xml:space="preserve"
       transform="scale(0.26458333)"
       id="text12049"
       style="fill:black;fill-opacity:1;line-height:1.25;stroke:none;font-family:sans-serif;font-style:normal;font-weight:normal;font-size:40px;white-space:pre;shape-inside:url(#rect12051)" />
  </g>
</svg>
